# xmcd
#
# Track frame offsets:
#	150
#	13740
#	35974
#	50887
#	66323
#	80735
#	94586
#	106770
#	119371
#	129515
#	150601
#	164422
#	178617
#	189602
#	204157
#	225553
#
# Disc length: 3198 seconds
#
# Revision: 1
# Processed by: cddbd v1.5.1PL0 Copyright (c) Steve Scherf et al.
# Submitted via: audiograbber 1.83.01
#
DISCID=db0c7c10
DTITLE=Big Bill Broonzy - See See Rider
DYEAR=1900
DGENRE=Blues
TTITLE0=See See Rider
TTITLE1=Ridin' on Down
TTITLE2=Good Jelly
TTITLE3=In The Evenin'
TTITLE4=Baby Please Don't Go
TTITLE5=Horny Frog
TTITLE6=Mississippi River Blues
TTITLE7=I Want To Go Home
TTITLE8=Sixteen Tons
TTITLE9=I Got Up One Mornin' Blues
TTITLE10=The Sun Gonna Shine In My Door Someday
TTITLE11=All I Got Belongs To You
TTITLE12=St. Louis Blues
TTITLE13=I Can't Make You Satisfied
TTITLE14=Feelin' Lowdown
TTITLE15=Treat Everybody Right
EXTD=
EXTT0=
EXTT1=
EXTT2=
EXTT3=
EXTT4=
EXTT5=
EXTT6=
EXTT7=
EXTT8=
EXTT9=
EXTT10=
EXTT11=
EXTT12=
EXTT13=
EXTT14=
EXTT15=
PLAYORDER=
